<svg width="24" height="24" viewBox="0 0 40 40" fill="none" xmlns="http://www.w3.org/2000/svg">
<path d="M6 11.25C6 9.31953 7.56953 7.75 9.5 7.75H30.5C32.4305 7.75 34 9.31953 34 11.25V14.75C34 16.6805 32.4305 18.25 30.5 18.25H9.5C7.56953 18.25 6 16.6805 6 14.75V11.25Z" fill="#092E2F"/>
<path d="M24.2267 11.5858C23.8516 11.2107 23.3429 11 22.8125 11C22.2821 11 21.7734 11.2107 21.3983 11.5858C21.0232 11.9609 20.8125 12.4696 20.8125 13C20.8125 13.5304 21.0232 14.0391 21.3983 14.4142C21.7734 14.7893 22.2821 15 22.8125 15C23.3429 15 23.8516 14.7893 24.2267 14.4142C24.6018 14.0391 24.8125 13.5304 24.8125 13C24.8125 12.4696 24.6018 11.9609 24.2267 11.5858Z" fill="#3BC495"/>
<path d="M27.5858 11.5858C27.2107 11.9609 27 12.4696 27 13C27 13.5304 27.2107 14.0391 27.5858 14.4142C27.9609 14.7893 28.4696 15 29 15C29.5304 15 30.0391 14.7893 30.4142 14.4142C30.7893 14.0391 31 13.5304 31 13C31 12.4696 30.7893 11.9609 30.4142 11.5858C30.0391 11.2107 29.5304 11 29 11C28.4696 11 27.9609 11.2107 27.5858 11.5858Z" fill="#3BC495"/>
<path d="M9.5 21.75C7.56953 21.75 6 23.3195 6 25.25V28.75C6 30.6805 7.56953 32.25 9.5 32.25H30.5C32.4305 32.25 34 30.6805 34 28.75V25.25C34 23.3195 32.4305 21.75 30.5 21.75H9.5Z" fill="#092E2F"/>
<path d="M24.2267 25.5858C23.8516 25.2107 23.3429 25 22.8125 25C22.2821 25 21.7734 25.2107 21.3983 25.5858C21.0232 25.9609 20.8125 26.4696 20.8125 27C20.8125 27.5304 21.0232 28.0391 21.3983 28.4142C21.7734 28.7893 22.2821 29 22.8125 29C23.3429 29 23.8516 28.7893 24.2267 28.4142C24.6018 28.0391 24.8125 27.5304 24.8125 27C24.8125 26.4696 24.6018 25.9609 24.2267 25.5858Z" fill="#3BC495"/>
<path d="M27.5858 25.5858C27.2107 25.9609 27 26.4696 27 27C27 27.5304 27.2107 28.0391 27.5858 28.4142C27.9609 28.7893 28.4696 29 29 29C29.5304 29 30.0391 28.7893 30.4142 28.4142C30.7893 28.0391 31 27.5304 31 27C31 26.4696 30.7893 25.9609 30.4142 25.5858C30.0391 25.2107 29.5304 25 29 25C28.4696 25 27.9609 25.2107 27.5858 25.5858Z" fill="#3BC495"/>
</svg>
