<svg width="29" height="25" viewBox="0 0 29 25" fill="none" xmlns="http://www.w3.org/2000/svg">
<path d="M10.7143 10.1555C10.8929 10.1555 11.0714 10.2448 11.2054 10.3787L13.5714 12.7448V3.01263C13.5714 2.65548 13.8839 2.29834 14.2411 2.29834C14.6429 2.29834 15 2.65548 15 3.01263V12.7448L17.3214 10.3787C17.5893 10.1108 18.0804 10.1108 18.3482 10.3787C18.6161 10.6466 18.6161 11.1376 18.3482 11.4055L14.7768 14.9769C14.5089 15.2448 14.0179 15.2448 13.75 14.9769L10.1786 11.4055C9.91071 11.1376 9.91071 10.6466 10.1786 10.3787C10.3125 10.2448 10.4911 10.1555 10.7143 10.1555ZM17.8571 3.72691C17.4554 3.72691 17.1429 3.41441 17.1429 3.01263C17.1429 2.65548 17.4554 2.29834 17.8571 2.29834H22.8571C24.4196 2.29834 25.7143 3.59298 25.7143 5.15548V15.8698C25.7143 16.2716 25.3571 16.5841 25 16.5841C24.5982 16.5841 24.2857 16.2716 24.2857 15.8698V5.15548C24.2857 4.39655 23.6161 3.72691 22.8571 3.72691H17.8571ZM3.57143 16.5841C3.16964 16.5841 2.85714 16.2716 2.85714 15.8698V5.15548C2.85714 3.59298 4.10714 2.29834 5.71429 2.29834H10.7143C11.0714 2.29834 11.4286 2.65548 11.4286 3.01263C11.4286 3.41441 11.0714 3.72691 10.7143 3.72691H5.71429C4.91071 3.72691 4.28571 4.39655 4.28571 5.15548V15.8698C4.28571 16.2716 3.92857 16.5841 3.57143 16.5841ZM27.8571 18.0126C28.2143 18.0126 28.5714 18.3698 28.5714 18.7269V19.4412C28.5714 21.0483 27.2768 22.2983 25.7143 22.2983H2.85714C1.25 22.2983 0 21.0483 0 19.4412V18.7269C0 18.3698 0.3125 18.0126 0.714286 18.0126H27.8571ZM25.7143 20.8698C26.4732 20.8698 27.1429 20.2448 27.1429 19.4412H1.42857C1.42857 20.2448 2.05357 20.8698 2.85714 20.8698H25.7143Z" fill="currentColor"/>
</svg>
