<svg width="24" height="25" viewBox="0 0 24 25" fill="none" xmlns="http://www.w3.org/2000/svg">
<path d="M12.45 11.8484H20.55C20.775 11.8484 21 12.0734 21 12.2984C21 12.5515 20.775 12.7484 20.55 12.7484H16.95V14.0984H18.75C19.4812 14.0984 20.1 14.7171 20.1 15.4484V18.1484C20.1 18.9078 19.4812 19.4984 18.75 19.4984H14.25C13.4906 19.4984 12.9 18.9078 12.9 18.1484V15.4484C12.9 14.7171 13.4906 14.0984 14.25 14.0984H16.05V12.7484H7.95V14.0984H9.75C10.4812 14.0984 11.1 14.7171 11.1 15.4484V18.1484C11.1 18.9078 10.4812 19.4984 9.75 19.4984H5.25C4.49062 19.4984 3.9 18.9078 3.9 18.1484V15.4484C3.9 14.7171 4.49062 14.0984 5.25 14.0984H7.05V12.7484H3.45C3.19687 12.7484 3 12.5515 3 12.2984C3 12.0734 3.19687 11.8484 3.45 11.8484H11.55V10.4984H9.75C8.99062 10.4984 8.4 9.90776 8.4 9.14839V6.44839C8.4 5.71714 8.99062 5.09839 9.75 5.09839H14.25C14.9812 5.09839 15.6 5.71714 15.6 6.44839V9.14839C15.6 9.90776 14.9812 10.4984 14.25 10.4984H12.45V11.8484ZM14.25 5.99839H9.75C9.49687 5.99839 9.3 6.22339 9.3 6.44839V9.14839C9.3 9.40151 9.49687 9.59839 9.75 9.59839H14.25C14.475 9.59839 14.7 9.40151 14.7 9.14839V6.44839C14.7 6.22339 14.475 5.99839 14.25 5.99839ZM14.25 14.9984C13.9969 14.9984 13.8 15.2234 13.8 15.4484V18.1484C13.8 18.4015 13.9969 18.5984 14.25 18.5984H18.75C18.975 18.5984 19.2 18.4015 19.2 18.1484V15.4484C19.2 15.2234 18.975 14.9984 18.75 14.9984H14.25ZM5.25 14.9984C4.99687 14.9984 4.8 15.2234 4.8 15.4484V18.1484C4.8 18.4015 4.99687 18.5984 5.25 18.5984H9.75C9.975 18.5984 10.2 18.4015 10.2 18.1484V15.4484C10.2 15.2234 9.975 14.9984 9.75 14.9984H5.25Z" fill="currentColor"/>
</svg>
