<svg width="24" height="25" viewBox="0 0 32 32" fill="none" xmlns="http://www.w3.org/2000/svg">
<path d="M16 32H6.5625C2.94401 32 0 29.056 0 25.4375V16H1.875V25.4375C1.875 28.0221 3.97786 30.125 6.5625 30.125H16V32Z" fill="#FED137"/>
<path d="M13.1875 28.25H6.5625C5.01172 28.25 3.75 26.9883 3.75 25.4375V18.8125C3.75 17.2617 5.01172 16 6.5625 16H8.82585L16 23.1742V25.4375C16 26.9883 14.7383 28.25 13.1875 28.25ZM32 16H30.125V6.5625C30.125 3.97786 28.0221 1.875 25.4375 1.875H16V0H25.4375C29.056 0 32 2.94401 32 6.5625V16Z" fill="#FEB037"/>
<path d="M25.4375 16H23.1742L16 8.82585V6.5625C16 5.01172 17.2617 3.75 18.8125 3.75H25.4375C26.9883 3.75 28.25 5.01172 28.25 6.5625V13.1875C28.25 14.7383 26.9883 16 25.4375 16Z" fill="#FE8F37"/>
<path d="M21.6875 7.5H16L12.25 16L16 24.5H21.6875C23.2383 24.5 24.5 23.2383 24.5 21.6875V10.3125C24.5 8.76172 23.2383 7.5 21.6875 7.5Z" fill="#FEB037"/>
<path d="M10.3125 7.5C8.76172 7.5 7.5 8.76172 7.5 10.3125V21.6875C7.5 23.2383 8.76172 24.5 10.3125 24.5H16V7.5H10.3125Z" fill="#FED137"/>
</svg>
