<svg width="233" height="194" viewBox="0 0 233 194" fill="none" xmlns="http://www.w3.org/2000/svg">
<path d="M1 16.2988C1 7.73841 7.93959 0.798828 16.5 0.798828H216.5C225.06 0.798828 232 7.73841 232 16.2988V177.299C232 185.859 225.06 192.799 216.5 192.799H16.5C7.93958 192.799 1 185.859 1 177.299V16.2988Z" stroke="#5B625F"/>
<path d="M123.387 56.4938L125.503 55.1627V55.1627L123.387 56.4938ZM122.131 60.817C122.131 62.1977 123.25 63.317 124.631 63.317C126.011 63.317 127.131 62.1977 127.131 60.817H122.131ZM110.87 60.817C110.87 57.7074 113.39 55.1865 116.5 55.1865V50.1865C110.629 50.1865 105.87 54.946 105.87 60.817H110.87ZM116.5 55.1865C118.507 55.1865 120.271 56.2345 121.271 57.825L125.503 55.1627C123.626 52.1786 120.297 50.1865 116.5 50.1865V55.1865ZM121.271 57.825C121.815 58.6903 122.131 59.713 122.131 60.817H127.131C127.131 58.7437 126.535 56.8019 125.503 55.1627L121.271 57.825ZM105.87 60.817V69.9478H110.87V60.817H105.87Z" fill="#3A7C7D"/>
<rect x="101.747" y="64.6631" width="29.5049" height="28.058" rx="4" fill="#3BC495"/>
<path fill-rule="evenodd" clip-rule="evenodd" d="M110.87 64.6631V69.9478H105.87V64.6631H110.87Z" fill="#092E2F"/>
<path d="M121.3 78.6926C121.3 81.3435 119.151 83.4926 116.5 83.4926C113.849 83.4926 111.7 81.3435 111.7 78.6926C111.7 76.0416 113.849 73.8926 116.5 73.8926C119.151 73.8926 121.3 76.0416 121.3 78.6926Z" fill="white"/>
<circle cx="108.37" cy="70.04" r="2.5" fill="#092E2F"/>
<path d="M42.9487 138.299V122.843H47.5687C49.1227 122.843 50.4457 123.074 51.5377 123.536C52.6297 123.998 53.5047 124.614 54.1627 125.384C54.8347 126.154 55.3247 127.015 55.6327 127.967C55.9407 128.919 56.0947 129.878 56.0947 130.844C56.0947 131.992 55.8847 133.028 55.4647 133.952C55.0587 134.862 54.4987 135.646 53.7847 136.304C53.0707 136.948 52.2447 137.445 51.3067 137.795C50.3687 138.131 49.3747 138.299 48.3247 138.299H42.9487ZM45.9937 135.359H47.7997C48.5697 135.359 49.2697 135.261 49.8997 135.065C50.5297 134.855 51.0687 134.554 51.5167 134.162C51.9787 133.77 52.3287 133.28 52.5667 132.692C52.8187 132.09 52.9447 131.404 52.9447 130.634C52.9447 129.626 52.7767 128.807 52.4407 128.177C52.1187 127.533 51.7127 127.036 51.2227 126.686C50.7467 126.336 50.2567 126.098 49.7527 125.972C49.2487 125.832 48.8217 125.762 48.4717 125.762H45.9937V135.359ZM61.6909 138.551C60.8369 138.551 60.0599 138.383 59.3599 138.047C58.6739 137.697 58.1279 137.165 57.7219 136.451C57.3159 135.737 57.1129 134.827 57.1129 133.721C57.1129 132.685 57.3229 131.789 57.7429 131.033C58.1629 130.277 58.7159 129.696 59.4019 129.29C60.0879 128.87 60.8159 128.66 61.5859 128.66C62.4959 128.66 63.1819 128.814 63.6439 129.122C64.1199 129.416 64.5119 129.745 64.8199 130.109L64.6939 130.466L64.9669 129.122H67.6969V138.299H64.7569V136.304L64.9879 136.934C64.9599 136.934 64.8759 137.018 64.7359 137.186C64.5959 137.34 64.3859 137.529 64.1059 137.753C63.8399 137.963 63.5039 138.145 63.0979 138.299C62.7059 138.467 62.2369 138.551 61.6909 138.551ZM62.5309 136.157C62.8809 136.157 63.1959 136.108 63.4759 136.01C63.7559 135.898 64.0009 135.744 64.2109 135.548C64.4209 135.338 64.6029 135.079 64.7569 134.771V132.524C64.6449 132.216 64.4769 131.957 64.2529 131.747C64.0289 131.523 63.7629 131.355 63.4549 131.243C63.1469 131.117 62.8039 131.054 62.4259 131.054C62.0059 131.054 61.6139 131.166 61.2499 131.39C60.8999 131.6 60.6199 131.894 60.4099 132.272C60.1999 132.65 60.0949 133.084 60.0949 133.574C60.0949 134.064 60.2069 134.505 60.4309 134.897C60.6549 135.289 60.9489 135.597 61.3129 135.821C61.6909 136.045 62.0969 136.157 62.5309 136.157ZM70.7473 125.09H73.6873V129.08H75.9133V131.369H73.6873V138.299H70.7473V131.369H69.3193V129.08H70.7473V125.09ZM81.175 138.551C80.321 138.551 79.544 138.383 78.844 138.047C78.158 137.697 77.612 137.165 77.206 136.451C76.8 135.737 76.597 134.827 76.597 133.721C76.597 132.685 76.807 131.789 77.227 131.033C77.647 130.277 78.2 129.696 78.886 129.29C79.572 128.87 80.3 128.66 81.07 128.66C81.98 128.66 82.666 128.814 83.128 129.122C83.604 129.416 83.996 129.745 84.304 130.109L84.178 130.466L84.451 129.122H87.181V138.299H84.241V136.304L84.472 136.934C84.444 136.934 84.36 137.018 84.22 137.186C84.08 137.34 83.87 137.529 83.59 137.753C83.324 137.963 82.988 138.145 82.582 138.299C82.19 138.467 81.721 138.551 81.175 138.551ZM82.015 136.157C82.365 136.157 82.68 136.108 82.96 136.01C83.24 135.898 83.485 135.744 83.695 135.548C83.905 135.338 84.087 135.079 84.241 134.771V132.524C84.129 132.216 83.961 131.957 83.737 131.747C83.513 131.523 83.247 131.355 82.939 131.243C82.631 131.117 82.288 131.054 81.91 131.054C81.49 131.054 81.098 131.166 80.734 131.39C80.384 131.6 80.104 131.894 79.894 132.272C79.684 132.65 79.579 133.084 79.579 133.574C79.579 134.064 79.691 134.505 79.915 134.897C80.139 135.289 80.433 135.597 80.797 135.821C81.175 136.045 81.581 136.157 82.015 136.157ZM99.8745 138.551C98.7545 138.551 97.8025 138.341 97.0185 137.921C96.2485 137.501 95.6605 136.92 95.2545 136.178C94.8485 135.436 94.6455 134.582 94.6455 133.616C94.6455 132.692 94.8835 131.859 95.3595 131.117C95.8355 130.375 96.4725 129.787 97.2705 129.353C98.0685 128.905 98.9575 128.681 99.9375 128.681C101.253 128.681 102.331 129.066 103.171 129.836C104.025 130.592 104.578 131.691 104.83 133.133L97.6905 135.401L97.0395 133.805L102.205 132.062L101.596 132.335C101.484 131.971 101.281 131.656 100.987 131.39C100.707 131.11 100.28 130.97 99.7065 130.97C99.2725 130.97 98.8875 131.075 98.5515 131.285C98.2295 131.481 97.9775 131.768 97.7955 132.146C97.6275 132.51 97.5435 132.944 97.5435 133.448C97.5435 134.022 97.6485 134.505 97.8585 134.897C98.0685 135.275 98.3555 135.562 98.7195 135.758C99.0835 135.954 99.4895 136.052 99.9375 136.052C100.259 136.052 100.567 135.996 100.861 135.884C101.169 135.772 101.47 135.625 101.764 135.443L103.066 137.627C102.576 137.907 102.044 138.131 101.47 138.299C100.91 138.467 100.378 138.551 99.8745 138.551ZM108.794 129.122L109.025 130.76L108.983 130.613C109.305 130.039 109.76 129.577 110.348 129.227C110.936 128.863 111.657 128.681 112.511 128.681C113.379 128.681 114.1 128.94 114.674 129.458C115.262 129.962 115.563 130.62 115.577 131.432V138.299H112.637V132.524C112.623 132.118 112.511 131.796 112.301 131.558C112.105 131.306 111.769 131.18 111.293 131.18C110.845 131.18 110.453 131.327 110.117 131.621C109.781 131.915 109.522 132.314 109.34 132.818C109.158 133.322 109.067 133.903 109.067 134.561V138.299H106.127V129.122H108.794ZM125.547 137.48C125.141 137.802 124.63 138.061 124.014 138.257C123.412 138.453 122.817 138.551 122.229 138.551C121.179 138.551 120.262 138.362 119.478 137.984C118.708 137.592 118.106 137.039 117.672 136.325C117.252 135.597 117.042 134.722 117.042 133.7C117.042 132.678 117.273 131.81 117.735 131.096C118.197 130.368 118.799 129.815 119.541 129.437C120.297 129.059 121.088 128.87 121.914 128.87C122.74 128.87 123.454 128.982 124.056 129.206C124.672 129.43 125.197 129.724 125.631 130.088L124.203 131.978C124.007 131.824 123.734 131.67 123.384 131.516C123.048 131.348 122.649 131.264 122.187 131.264C121.781 131.264 121.41 131.369 121.074 131.579C120.738 131.789 120.472 132.076 120.276 132.44C120.08 132.804 119.982 133.224 119.982 133.7C119.982 134.148 120.087 134.561 120.297 134.939C120.507 135.317 120.794 135.618 121.158 135.842C121.536 136.052 121.977 136.157 122.481 136.157C122.803 136.157 123.097 136.115 123.363 136.031C123.643 135.933 123.881 135.8 124.077 135.632L125.547 137.48ZM129.61 129.122L129.883 131.642L129.82 131.264C130.086 130.718 130.45 130.256 130.912 129.878C131.374 129.486 131.829 129.185 132.277 128.975C132.739 128.765 133.089 128.66 133.327 128.66L133.18 131.6C132.494 131.516 131.906 131.628 131.416 131.936C130.926 132.244 130.548 132.65 130.282 133.154C130.016 133.658 129.883 134.176 129.883 134.708V138.299H126.964V129.122H129.61ZM135.473 142.709L141.584 129.122H144.23L138.308 142.709H135.473ZM137.93 138.341L133.436 129.122H136.733L140.198 136.871L137.93 138.341ZM150.87 138.551C150.324 138.551 149.785 138.453 149.253 138.257C148.735 138.047 148.301 137.753 147.951 137.375L148.035 136.514V142.709H145.116V128.912H147.636L148.056 130.697L147.825 130.067C148.301 129.661 148.833 129.325 149.421 129.059C150.009 128.793 150.688 128.66 151.458 128.66C152.312 128.66 153.075 128.863 153.747 129.269C154.419 129.661 154.944 130.235 155.322 130.991C155.714 131.733 155.91 132.629 155.91 133.679C155.91 134.715 155.693 135.597 155.259 136.325C154.825 137.053 154.23 137.606 153.474 137.984C152.718 138.362 151.85 138.551 150.87 138.551ZM150.282 136.241C150.758 136.241 151.192 136.136 151.584 135.926C151.99 135.716 152.312 135.422 152.55 135.044C152.802 134.652 152.928 134.211 152.928 133.721C152.928 133.203 152.816 132.755 152.592 132.377C152.382 131.985 152.088 131.684 151.71 131.474C151.346 131.25 150.94 131.138 150.492 131.138C150.1 131.138 149.75 131.194 149.442 131.306C149.148 131.404 148.882 131.558 148.644 131.768C148.42 131.964 148.224 132.216 148.056 132.524V134.771C148.168 135.065 148.329 135.324 148.539 135.548C148.749 135.772 149.001 135.947 149.295 136.073C149.603 136.185 149.932 136.241 150.282 136.241ZM158.241 125.09H161.181V129.08H163.407V131.369H161.181V138.299H158.241V131.369H156.813V129.08H158.241V125.09ZM164.805 129.122H167.745V138.299H164.805V129.122ZM164.742 125.867C164.742 125.433 164.91 125.076 165.246 124.796C165.596 124.516 165.967 124.376 166.359 124.376C166.751 124.376 167.108 124.516 167.43 124.796C167.766 125.076 167.934 125.433 167.934 125.867C167.934 126.301 167.766 126.658 167.43 126.938C167.108 127.204 166.751 127.337 166.359 127.337C165.967 127.337 165.596 127.204 165.246 126.938C164.91 126.658 164.742 126.301 164.742 125.867ZM169.218 133.595C169.218 132.657 169.435 131.817 169.869 131.075C170.317 130.333 170.94 129.752 171.738 129.332C172.536 128.898 173.453 128.681 174.489 128.681C175.539 128.681 176.449 128.898 177.219 129.332C177.989 129.752 178.577 130.333 178.983 131.075C179.403 131.817 179.613 132.657 179.613 133.595C179.613 134.533 179.403 135.38 178.983 136.136C178.577 136.878 177.989 137.466 177.219 137.9C176.449 138.334 175.525 138.551 174.447 138.551C173.439 138.551 172.536 138.355 171.738 137.963C170.954 137.571 170.338 137.004 169.89 136.262C169.442 135.52 169.218 134.631 169.218 133.595ZM172.179 133.616C172.179 134.092 172.277 134.526 172.473 134.918C172.669 135.296 172.935 135.597 173.271 135.821C173.607 136.045 173.985 136.157 174.405 136.157C174.867 136.157 175.266 136.045 175.602 135.821C175.938 135.597 176.197 135.296 176.379 134.918C176.561 134.526 176.652 134.092 176.652 133.616C176.652 133.126 176.561 132.692 176.379 132.314C176.197 131.936 175.938 131.635 175.602 131.411C175.266 131.187 174.867 131.075 174.405 131.075C173.985 131.075 173.607 131.187 173.271 131.411C172.935 131.635 172.669 131.936 172.473 132.314C172.277 132.692 172.179 133.126 172.179 133.616ZM183.757 129.122L183.988 130.76L183.946 130.613C184.268 130.039 184.723 129.577 185.311 129.227C185.899 128.863 186.62 128.681 187.474 128.681C188.342 128.681 189.063 128.94 189.637 129.458C190.225 129.962 190.526 130.62 190.54 131.432V138.299H187.6V132.524C187.586 132.118 187.474 131.796 187.264 131.558C187.068 131.306 186.732 131.18 186.256 131.18C185.808 131.18 185.416 131.327 185.08 131.621C184.744 131.915 184.485 132.314 184.303 132.818C184.121 133.322 184.03 133.903 184.03 134.561V138.299H181.09V129.122H183.757Z" fill="white"/>
</svg>
