<svg width="269" height="194" viewBox="0 0 269 194" fill="none" xmlns="http://www.w3.org/2000/svg">
<path d="M1 16.2988C1 7.73841 7.93959 0.798828 16.5 0.798828H252.5C261.06 0.798828 268 7.73841 268 16.2988V177.299C268 185.859 261.06 192.799 252.5 192.799H16.5C7.93959 192.799 1 185.859 1 177.299V16.2988Z" stroke="#5B625F"/>
<rect width="33.1642" height="6" rx="3" transform="matrix(-0.707107 0.707107 0.707107 0.707107 137.917 67.0674)" fill="#3BC495"/>
<rect width="15.2244" height="6" rx="3" transform="matrix(-0.707107 0.707107 0.707107 0.707107 144.393 60.585)" fill="#3A7C7D"/>
<path fill-rule="evenodd" clip-rule="evenodd" d="M141.395 72.0685C142.451 70.8906 142.414 69.0784 141.281 67.9461C140.11 66.7745 138.21 66.7745 137.039 67.9461L135.589 69.3953C134.533 70.5732 134.571 72.3855 135.703 73.5178C136.875 74.6893 138.774 74.6893 139.946 73.5178L141.395 72.0685Z" fill="white"/>
<rect x="134.796" y="52.6777" width="8.88772" height="3" rx="1.5" transform="rotate(75 134.796 52.6777)" fill="#092E2F"/>
<rect x="129.817" y="57.0596" width="8.88772" height="3" rx="1.5" transform="rotate(-15 129.817 57.0596)" fill="#092E2F"/>
<rect width="8.88772" height="3" rx="1.5" transform="matrix(-0.991692 -0.128634 -0.128634 0.991692 159.009 65.3975)" fill="#092E2F"/>
<rect width="8.88772" height="3" rx="1.5" transform="matrix(0.106286 -0.994336 -0.994336 -0.106286 155.428 70.8906)" fill="#092E2F"/>
<rect x="157.737" y="52.126" width="8.88772" height="3" rx="1.5" transform="rotate(135 157.737 52.126)" fill="#FFD147"/>
<rect x="155.616" y="58.4102" width="8.88772" height="3" rx="1.5" transform="rotate(-135 155.616 58.4102)" fill="#FFD147"/>
<path d="M41.9245 130.592C41.9245 129.528 42.1275 128.52 42.5335 127.568C42.9395 126.616 43.4995 125.776 44.2135 125.048C44.9415 124.306 45.7815 123.725 46.7335 123.305C47.6855 122.885 48.7075 122.675 49.7995 122.675C50.8775 122.675 51.8925 122.885 52.8445 123.305C53.7965 123.725 54.6365 124.306 55.3645 125.048C56.1065 125.776 56.6805 126.616 57.0865 127.568C57.5065 128.52 57.7165 129.528 57.7165 130.592C57.7165 131.684 57.5065 132.706 57.0865 133.658C56.6805 134.61 56.1065 135.45 55.3645 136.178C54.6365 136.892 53.7965 137.452 52.8445 137.858C51.8925 138.264 50.8775 138.467 49.7995 138.467C48.7075 138.467 47.6855 138.264 46.7335 137.858C45.7815 137.452 44.9415 136.892 44.2135 136.178C43.4995 135.45 42.9395 134.61 42.5335 133.658C42.1275 132.706 41.9245 131.684 41.9245 130.592ZM45.0745 130.592C45.0745 131.278 45.1935 131.922 45.4315 132.524C45.6835 133.112 46.0265 133.637 46.4605 134.099C46.9085 134.547 47.4195 134.897 47.9935 135.149C48.5815 135.401 49.2185 135.527 49.9045 135.527C50.5625 135.527 51.1715 135.401 51.7315 135.149C52.3055 134.897 52.8025 134.547 53.2225 134.099C53.6425 133.637 53.9715 133.112 54.2095 132.524C54.4475 131.922 54.5665 131.278 54.5665 130.592C54.5665 129.892 54.4405 129.241 54.1885 128.639C53.9505 128.037 53.6145 127.512 53.1805 127.064C52.7605 126.602 52.2635 126.245 51.6895 125.993C51.1155 125.741 50.4925 125.615 49.8205 125.615C49.1485 125.615 48.5255 125.741 47.9515 125.993C47.3775 126.245 46.8735 126.602 46.4395 127.064C46.0055 127.512 45.6695 128.037 45.4315 128.639C45.1935 129.241 45.0745 129.892 45.0745 130.592ZM62.0963 129.122L62.3273 130.76L62.2853 130.613C62.6073 130.039 63.0623 129.577 63.6503 129.227C64.2383 128.863 64.9593 128.681 65.8133 128.681C66.6813 128.681 67.4023 128.94 67.9763 129.458C68.5643 129.962 68.8653 130.62 68.8793 131.432V138.299H65.9393V132.524C65.9253 132.118 65.8133 131.796 65.6033 131.558C65.4073 131.306 65.0713 131.18 64.5953 131.18C64.1473 131.18 63.7553 131.327 63.4193 131.621C63.0833 131.915 62.8243 132.314 62.6423 132.818C62.4603 133.322 62.3693 133.903 62.3693 134.561V138.299H59.4293V129.122H62.0963ZM75.573 138.551C74.453 138.551 73.501 138.341 72.717 137.921C71.947 137.501 71.359 136.92 70.953 136.178C70.547 135.436 70.344 134.582 70.344 133.616C70.344 132.692 70.582 131.859 71.058 131.117C71.534 130.375 72.171 129.787 72.969 129.353C73.767 128.905 74.656 128.681 75.636 128.681C76.952 128.681 78.03 129.066 78.87 129.836C79.724 130.592 80.277 131.691 80.529 133.133L73.389 135.401L72.738 133.805L77.904 132.062L77.295 132.335C77.183 131.971 76.98 131.656 76.686 131.39C76.406 131.11 75.979 130.97 75.405 130.97C74.971 130.97 74.586 131.075 74.25 131.285C73.928 131.481 73.676 131.768 73.494 132.146C73.326 132.51 73.242 132.944 73.242 133.448C73.242 134.022 73.347 134.505 73.557 134.897C73.767 135.275 74.054 135.562 74.418 135.758C74.782 135.954 75.188 136.052 75.636 136.052C75.958 136.052 76.266 135.996 76.56 135.884C76.868 135.772 77.169 135.625 77.463 135.443L78.765 137.627C78.275 137.907 77.743 138.131 77.169 138.299C76.609 138.467 76.077 138.551 75.573 138.551ZM81.4474 132.209H85.3954V134.771H81.4474V132.209ZM99.4794 137.018C99.3114 137.158 98.9964 137.347 98.5344 137.585C98.0864 137.823 97.5334 138.033 96.8754 138.215C96.2174 138.397 95.4894 138.481 94.6914 138.467C93.4734 138.439 92.3814 138.222 91.4154 137.816C90.4634 137.396 89.6514 136.829 88.9794 136.115C88.3214 135.401 87.8174 134.582 87.4674 133.658C87.1174 132.734 86.9424 131.747 86.9424 130.697C86.9424 129.521 87.1174 128.443 87.4674 127.463C87.8314 126.483 88.3424 125.636 89.0004 124.922C89.6724 124.208 90.4704 123.655 91.3944 123.263C92.3184 122.871 93.3404 122.675 94.4604 122.675C95.4964 122.675 96.4134 122.815 97.2114 123.095C98.0094 123.375 98.6604 123.676 99.1644 123.998L97.9674 126.875C97.6174 126.609 97.1484 126.336 96.5604 126.056C95.9864 125.762 95.3214 125.615 94.5654 125.615C93.9774 125.615 93.4104 125.741 92.8644 125.993C92.3324 126.231 91.8564 126.574 91.4364 127.022C91.0304 127.47 90.7084 127.995 90.4704 128.597C90.2324 129.185 90.1134 129.829 90.1134 130.529C90.1134 131.271 90.2184 131.95 90.4284 132.566C90.6524 133.182 90.9674 133.714 91.3734 134.162C91.7794 134.596 92.2624 134.932 92.8224 135.17C93.3964 135.408 94.0404 135.527 94.7544 135.527C95.5804 135.527 96.2874 135.394 96.8754 135.128C97.4634 134.862 97.9114 134.582 98.2194 134.288L99.4794 137.018ZM101.207 121.73H104.147V138.299H101.207V121.73ZM106.335 129.122H109.275V138.299H106.335V129.122ZM106.272 125.867C106.272 125.433 106.44 125.076 106.776 124.796C107.126 124.516 107.497 124.376 107.889 124.376C108.281 124.376 108.638 124.516 108.96 124.796C109.296 125.076 109.464 125.433 109.464 125.867C109.464 126.301 109.296 126.658 108.96 126.938C108.638 127.204 108.281 127.337 107.889 127.337C107.497 127.337 107.126 127.204 106.776 126.938C106.44 126.658 106.272 126.301 106.272 125.867ZM119.254 137.48C118.848 137.802 118.337 138.061 117.721 138.257C117.119 138.453 116.524 138.551 115.936 138.551C114.886 138.551 113.969 138.362 113.185 137.984C112.415 137.592 111.813 137.039 111.379 136.325C110.959 135.597 110.749 134.722 110.749 133.7C110.749 132.678 110.98 131.81 111.442 131.096C111.904 130.368 112.506 129.815 113.248 129.437C114.004 129.059 114.795 128.87 115.621 128.87C116.447 128.87 117.161 128.982 117.763 129.206C118.379 129.43 118.904 129.724 119.338 130.088L117.91 131.978C117.714 131.824 117.441 131.67 117.091 131.516C116.755 131.348 116.356 131.264 115.894 131.264C115.488 131.264 115.117 131.369 114.781 131.579C114.445 131.789 114.179 132.076 113.983 132.44C113.787 132.804 113.689 133.224 113.689 133.7C113.689 134.148 113.794 134.561 114.004 134.939C114.214 135.317 114.501 135.618 114.865 135.842C115.243 136.052 115.684 136.157 116.188 136.157C116.51 136.157 116.804 136.115 117.07 136.031C117.35 135.933 117.588 135.8 117.784 135.632L119.254 137.48ZM120.671 138.299V121.73H123.611V138.299H120.671ZM125.942 132.062L130.1 138.299H126.677L124.01 133.742L125.942 132.062ZM122.729 135.758L122.435 132.965L127.979 128.891L129.764 130.466L122.729 135.758ZM137.767 138.299V122.213H137.788L146.377 134.393L145.075 134.099L153.643 122.213H153.685V138.299H150.64V129.08L150.829 130.655L145.6 138.089H145.558L140.182 130.655L140.707 129.206V138.299H137.767ZM156.357 129.122H159.297V138.299H156.357V129.122ZM156.294 125.867C156.294 125.433 156.462 125.076 156.798 124.796C157.148 124.516 157.519 124.376 157.911 124.376C158.303 124.376 158.66 124.516 158.982 124.796C159.318 125.076 159.486 125.433 159.486 125.867C159.486 126.301 159.318 126.658 158.982 126.938C158.66 127.204 158.303 127.337 157.911 127.337C157.519 127.337 157.148 127.204 156.798 126.938C156.462 126.658 156.294 126.301 156.294 125.867ZM166.231 142.919C165.405 142.919 164.705 142.821 164.131 142.625C163.571 142.429 163.095 142.191 162.703 141.911C162.311 141.631 161.961 141.365 161.653 141.113L163.375 139.097C163.697 139.391 164.068 139.671 164.488 139.937C164.922 140.217 165.489 140.357 166.189 140.357C166.651 140.357 167.078 140.273 167.47 140.105C167.876 139.951 168.198 139.72 168.436 139.412C168.688 139.104 168.814 138.719 168.814 138.257V136.241L168.919 136.766C168.695 137.242 168.289 137.662 167.701 138.026C167.113 138.376 166.343 138.551 165.391 138.551C164.565 138.551 163.795 138.341 163.081 137.921C162.381 137.487 161.821 136.906 161.401 136.178C160.981 135.436 160.771 134.596 160.771 133.658C160.771 132.692 160.995 131.838 161.443 131.096C161.891 130.34 162.472 129.745 163.186 129.311C163.9 128.877 164.656 128.66 165.454 128.66C166.252 128.66 166.938 128.779 167.512 129.017C168.1 129.241 168.541 129.521 168.835 129.857L168.73 130.13L169.045 129.122H171.754V138.299C171.754 139.195 171.502 139.986 170.998 140.672C170.494 141.372 169.822 141.918 168.982 142.31C168.156 142.716 167.239 142.919 166.231 142.919ZM163.732 133.574C163.732 134.064 163.844 134.505 164.068 134.897C164.292 135.289 164.593 135.597 164.971 135.821C165.363 136.045 165.797 136.157 166.273 136.157C166.679 136.157 167.036 136.108 167.344 136.01C167.666 135.898 167.946 135.744 168.184 135.548C168.436 135.338 168.646 135.079 168.814 134.771V132.524C168.688 132.216 168.499 131.957 168.247 131.747C167.995 131.523 167.701 131.355 167.365 131.243C167.043 131.117 166.679 131.054 166.273 131.054C165.797 131.054 165.363 131.166 164.971 131.39C164.593 131.6 164.292 131.894 164.068 132.272C163.844 132.65 163.732 133.084 163.732 133.574ZM176.58 129.122L176.853 131.642L176.79 131.264C177.056 130.718 177.42 130.256 177.882 129.878C178.344 129.486 178.799 129.185 179.247 128.975C179.709 128.765 180.059 128.66 180.297 128.66L180.15 131.6C179.464 131.516 178.876 131.628 178.386 131.936C177.896 132.244 177.518 132.65 177.252 133.154C176.986 133.658 176.853 134.176 176.853 134.708V138.299H173.934V129.122H176.58ZM185.264 138.551C184.41 138.551 183.633 138.383 182.933 138.047C182.247 137.697 181.701 137.165 181.295 136.451C180.889 135.737 180.686 134.827 180.686 133.721C180.686 132.685 180.896 131.789 181.316 131.033C181.736 130.277 182.289 129.696 182.975 129.29C183.661 128.87 184.389 128.66 185.159 128.66C186.069 128.66 186.755 128.814 187.217 129.122C187.693 129.416 188.085 129.745 188.393 130.109L188.267 130.466L188.54 129.122H191.27V138.299H188.33V136.304L188.561 136.934C188.533 136.934 188.449 137.018 188.309 137.186C188.169 137.34 187.959 137.529 187.679 137.753C187.413 137.963 187.077 138.145 186.671 138.299C186.279 138.467 185.81 138.551 185.264 138.551ZM186.104 136.157C186.454 136.157 186.769 136.108 187.049 136.01C187.329 135.898 187.574 135.744 187.784 135.548C187.994 135.338 188.176 135.079 188.33 134.771V132.524C188.218 132.216 188.05 131.957 187.826 131.747C187.602 131.523 187.336 131.355 187.028 131.243C186.72 131.117 186.377 131.054 185.999 131.054C185.579 131.054 185.187 131.166 184.823 131.39C184.473 131.6 184.193 131.894 183.983 132.272C183.773 132.65 183.668 133.084 183.668 133.574C183.668 134.064 183.78 134.505 184.004 134.897C184.228 135.289 184.522 135.597 184.886 135.821C185.264 136.045 185.67 136.157 186.104 136.157ZM194.32 125.09H197.26V129.08H199.486V131.369H197.26V138.299H194.32V131.369H192.892V129.08H194.32V125.09ZM200.884 129.122H203.824V138.299H200.884V129.122ZM200.821 125.867C200.821 125.433 200.989 125.076 201.325 124.796C201.675 124.516 202.046 124.376 202.438 124.376C202.83 124.376 203.187 124.516 203.509 124.796C203.845 125.076 204.013 125.433 204.013 125.867C204.013 126.301 203.845 126.658 203.509 126.938C203.187 127.204 202.83 127.337 202.438 127.337C202.046 127.337 201.675 127.204 201.325 126.938C200.989 126.658 200.821 126.301 200.821 125.867ZM205.298 133.595C205.298 132.657 205.515 131.817 205.949 131.075C206.397 130.333 207.02 129.752 207.818 129.332C208.616 128.898 209.533 128.681 210.569 128.681C211.619 128.681 212.529 128.898 213.299 129.332C214.069 129.752 214.657 130.333 215.063 131.075C215.483 131.817 215.693 132.657 215.693 133.595C215.693 134.533 215.483 135.38 215.063 136.136C214.657 136.878 214.069 137.466 213.299 137.9C212.529 138.334 211.605 138.551 210.527 138.551C209.519 138.551 208.616 138.355 207.818 137.963C207.034 137.571 206.418 137.004 205.97 136.262C205.522 135.52 205.298 134.631 205.298 133.595ZM208.259 133.616C208.259 134.092 208.357 134.526 208.553 134.918C208.749 135.296 209.015 135.597 209.351 135.821C209.687 136.045 210.065 136.157 210.485 136.157C210.947 136.157 211.346 136.045 211.682 135.821C212.018 135.597 212.277 135.296 212.459 134.918C212.641 134.526 212.732 134.092 212.732 133.616C212.732 133.126 212.641 132.692 212.459 132.314C212.277 131.936 212.018 131.635 211.682 131.411C211.346 131.187 210.947 131.075 210.485 131.075C210.065 131.075 209.687 131.187 209.351 131.411C209.015 131.635 208.749 131.936 208.553 132.314C208.357 132.692 208.259 133.126 208.259 133.616ZM219.836 129.122L220.067 130.76L220.025 130.613C220.347 130.039 220.802 129.577 221.39 129.227C221.978 128.863 222.699 128.681 223.553 128.681C224.421 128.681 225.142 128.94 225.716 129.458C226.304 129.962 226.605 130.62 226.619 131.432V138.299H223.679V132.524C223.665 132.118 223.553 131.796 223.343 131.558C223.147 131.306 222.811 131.18 222.335 131.18C221.887 131.18 221.495 131.327 221.159 131.621C220.823 131.915 220.564 132.314 220.382 132.818C220.2 133.322 220.109 133.903 220.109 134.561V138.299H217.169V129.122H219.836Z" fill="white"/>
</svg>
